<svg xmlns="http://www.w3.org/2000/svg" xmlns:svg="http://www.w3.org/2000/svg" id="svg699" width="100" height="100" version="1.1" viewBox="0 0 26.458 26.458" xml:space="preserve"><defs id="defs696"><linearGradient id="linearGradient11273"><stop style="stop-color:#ff00cf;stop-opacity:.61176473" id="stop11271" offset="0"/></linearGradient><linearGradient id="linearGradient1606"><stop style="stop-color:#000;stop-opacity:1" id="stop1604" offset="0"/></linearGradient></defs><g id="layer1"><path style="fill:#2b0000;stroke-width:.264583" id="path921" d="m 36.547914,10.117786 0.01617,9.128071"/><rect style="fill:#4096b9;fill-opacity:1;stroke:#233f92;stroke-width:.265;stroke-dasharray:none;stroke-opacity:1" id="rect925" width="9.927" height="7.42" x="2.198" y="4.187"/><ellipse style="fill:none;stroke:none;stroke-width:.258" id="path10703" cx="-11.418" cy="19.841" rx="10.506" ry="10.583"/><ellipse style="fill:none;stroke:none;stroke-width:.258;stroke-opacity:1" id="path17819" cx="-11.418" cy="19.873" rx="9.26" ry="9.26"/><path style="fill:#880b0b;fill-opacity:1;stroke:none;stroke-width:.258;stroke-opacity:1" id="path24398" d="M -4.0271416,9.1123469 V 32.844838 Z"/><path style="fill:#880b0b;fill-opacity:1;stroke:none;stroke-width:0;stroke-dasharray:none;stroke-opacity:1" id="path27385" d="m 27.651609,12.698046 a 0.16062549,0.0728601 0 0 1 -0.05094,0.05323 0.16062549,0.0728601 0 0 1 -0.120512,0.01947"/><path style="fill:none;fill-opacity:1;stroke:#233f92;stroke-width:.79375;stroke-dasharray:none;stroke-opacity:1" id="path37578" d="M 8.3496831,12.332784 6.0193016,12.332106"/><path style="fill:none;fill-opacity:1;stroke:#233f92;stroke-width:.264999;stroke-dasharray:none;stroke-opacity:1" id="path37578-9-5-3" d="m 4.4758708,13.05758 5.4172431,3.4e-5"/><path id="path6593-5" style="fill:#98c43d;fill-opacity:1;stroke:#040501;stroke-width:.132;stroke-opacity:1;stroke-dasharray:none" d="m 21.035357,13.274256 2.183939,-1.23e-4 c 2.97e-4,-0.01343 8.16e-4,-0.02646 0.0011,-0.0399 -0.0147,-5.0986268 -2.812533,-9.2048343 -6.314919,-9.2136068 l 0.437346,-1.968175 -3.978052,2.9383218 3.978051,3.0959351 -0.569186,-2.1248427 c 2.823247,0.1552185 4.250535,3.3859171 4.261687,7.3123976 z m -4.075233,-9.3292648 -3.3e-5,6.3e-6"/><path id="path6593-5-2" style="fill:#98c43d;fill-opacity:1;stroke:#040501;stroke-width:.132;stroke-opacity:1;stroke-dasharray:none" d="m 7.3457166,14.047745 -2.183939,1.23e-4 c -2.97e-4,0.01343 -8.16e-4,0.02646 -0.0011,0.0399 0.0147,5.098626 2.8125329,9.204834 6.3149194,9.213606 l -0.437346,1.968175 3.978051,-2.938321 -3.97805,-3.095936 0.569185,2.124843 C 8.7841906,21.204917 7.3569025,17.974218 7.3457506,14.047738 Z m 4.0752334,9.329264 3.3e-5,-6e-6"/><path style="fill:none;fill-opacity:1;stroke:#050505;stroke-width:.264999;stroke-dasharray:none;stroke-opacity:1" id="path12067" d="M 12.448428,24.457422 Z"/><path style="fill:none;fill-opacity:1;stroke:#050505;stroke-width:.264999;stroke-dasharray:none;stroke-opacity:1" id="path12069" d="M 12.448428,24.457422 Z"/><path style="fill:none;fill-opacity:1;stroke:#050505;stroke-width:.264999;stroke-dasharray:none;stroke-opacity:1" id="path12075" d="M 13.229167,22.489583 Z"/><path style="fill:none;fill-opacity:1;stroke:#050505;stroke-width:.264999;stroke-dasharray:none;stroke-opacity:1" id="path12112" d="M 12.448428,18.42287 Z"/><circle id="path8947" style="fill:#000;stroke:#050505;stroke-width:.264583" cx="5.083" cy="13.282" r=".006"/><path style="fill:#51d1cb;fill-opacity:1;stroke:#000;stroke-width:.132;stroke-dasharray:none;stroke-opacity:1" id="path5593-5" d="m 19.376425,22.452116 1.631929,-0.859453 -2.918061,-2.013736 -2.918061,-2.013736 0.940335,6.605828 1.631929,-0.859451 0.761321,2.096398 2.485174,-1.308811 z"/><path style="fill:#279a95;fill-opacity:1;stroke:#00100f;stroke-width:.132;stroke-dasharray:none;stroke-opacity:1" id="path5593-5-6" d="m 21.185865,20.352059 1.631929,-0.859453 -2.918061,-2.013736 -2.918061,-2.013736 0.940335,6.605828 1.631929,-0.859451 0.761321,2.096398 2.485174,-1.308811 z"/><path style="fill:#1a625f;fill-opacity:1;stroke:#000;stroke-width:.132;stroke-dasharray:none;stroke-opacity:1" id="path5593-5-2" d="m 23.030806,18.194971 1.631929,-0.859453 -2.918061,-2.013736 -2.918061,-2.013736 0.940335,6.605828 1.631929,-0.859451 0.761321,2.096398 2.485174,-1.308811 z"/></g></svg>