<svg xmlns="http://www.w3.org/2000/svg" xmlns:svg="http://www.w3.org/2000/svg" id="svg699" width="100" height="100" version="1.1" viewBox="0 0 26.458 26.458" xml:space="preserve"><defs id="defs696"><linearGradient id="linearGradient11273"><stop style="stop-color:#ff00cf;stop-opacity:.61176473" id="stop11271" offset="0"/></linearGradient><linearGradient id="linearGradient1606"><stop style="stop-color:#000;stop-opacity:1" id="stop1604" offset="0"/></linearGradient></defs><g id="layer1"><path style="fill:#2b0000;stroke-width:.264583" id="path921" d="m 36.547914,10.117786 0.01617,9.128071"/><rect style="fill:#000;fill-opacity:1;stroke:#000;stroke-width:.265;stroke-dasharray:none;stroke-opacity:1" id="rect925" width="9.927" height="7.42" x="2.198" y="4.187"/><ellipse style="fill:none;stroke:none;stroke-width:.258" id="path10703" cx="-11.418" cy="19.841" rx="10.506" ry="10.583"/><ellipse style="fill:none;stroke:none;stroke-width:.258;stroke-opacity:1" id="path17819" cx="-11.418" cy="19.873" rx="9.26" ry="9.26"/><path style="fill:#880b0b;fill-opacity:1;stroke:none;stroke-width:.258;stroke-opacity:1" id="path24398" d="M -4.0271416,9.1123469 V 32.844838 Z"/><path style="fill:#880b0b;fill-opacity:1;stroke:none;stroke-width:0;stroke-dasharray:none;stroke-opacity:1" id="path27385" d="m 27.651609,12.698046 a 0.16062549,0.0728601 0 0 1 -0.05094,0.05323 0.16062549,0.0728601 0 0 1 -0.120512,0.01947"/><path style="fill:none;fill-opacity:1;stroke:#000;stroke-width:.79375;stroke-dasharray:none;stroke-opacity:1" id="path37578" d="M 8.3496831,12.332784 6.0193016,12.332106"/><path style="fill:none;fill-opacity:1;stroke:#000;stroke-width:.264999;stroke-dasharray:none;stroke-opacity:1" id="path37578-9-5-3" d="m 4.4758708,13.05758 5.4172431,3.4e-5"/><path id="path6593-5" style="fill:#000;fill-opacity:1;stroke:#040501;stroke-width:.132;stroke-opacity:1;stroke-dasharray:none" d="M 17.342611 2.0525879 L 13.364559 4.9909098 L 17.342611 8.0868449 L 16.773653 5.96191 C 19.234013 6.0971774 20.633797 8.5681438 20.960478 11.799797 A 7.026125 7.026125 0 0 1 23.218738 13.109794 C 23.159199 8.0691069 20.379201 4.0291273 16.905428 4.0204264 L 17.342611 2.0525879 z"/><path id="path6593-5-2" style="fill:#000;fill-opacity:1;stroke:#040501;stroke-width:.132;stroke-opacity:1;stroke-dasharray:none" d="M 5.1619588 14.047721 C 5.1616618 14.061151 5.1612093 14.074072 5.1609253 14.087512 C 5.1756253 19.186133 7.9734023 23.292648 11.475785 23.30142 L 11.038086 25.269775 L 13.588835 23.385653 A 7.026125 7.026125 0 0 1 11.658203 19.718176 L 11.038086 19.235518 L 11.60756 21.359937 C 8.7843166 21.204719 7.3569567 17.974197 7.3458049 14.047721 L 5.1619588 14.047721 z"/><path style="fill:none;fill-opacity:1;stroke:#050505;stroke-width:.264999;stroke-dasharray:none;stroke-opacity:1" id="path12067" d="M 12.448428,24.457422 Z"/><path style="fill:none;fill-opacity:1;stroke:#050505;stroke-width:.264999;stroke-dasharray:none;stroke-opacity:1" id="path12069" d="M 12.448428,24.457422 Z"/><path style="fill:none;fill-opacity:1;stroke:#050505;stroke-width:.264999;stroke-dasharray:none;stroke-opacity:1" id="path12075" d="M 13.229167,22.489583 Z"/><path style="fill:none;fill-opacity:1;stroke:#050505;stroke-width:.264999;stroke-dasharray:none;stroke-opacity:1" id="path12112" d="M 12.448428,18.42287 Z"/><circle id="path8947" style="fill:#000;stroke:#050505;stroke-width:.264583" cx="5.083" cy="13.282" r=".006"/><path id="path7606" style="fill:#000;fill-opacity:1;stroke:#040501;stroke-width:.132" d="M 18.596281 12.985771 A 5.437223 5.437223 0 0 0 13.190926 18.444352 A 5.437223 5.437223 0 0 0 18.639172 23.860042 A 5.437223 5.437223 0 0 0 24.065715 18.422648 L 24.065198 18.380273 A 5.437223 5.437223 0 0 0 18.596281 12.985771 z M 21.716504 15.552539 C 21.987076 15.549157 22.285387 15.65976 22.538676 15.882235 C 23.015453 16.30101 23.147637 16.95231 22.835299 17.342094 L 19.043799 22.073588 C 18.97744 22.191682 18.889981 22.303116 18.781799 22.4007 C 18.664886 22.546602 18.502544 22.634713 18.320329 22.6658 C 18.320012 22.665897 18.319612 22.665704 18.319295 22.6658 C 17.969691 22.772052 17.608147 22.693913 17.385502 22.428088 L 14.275098 18.71462 C 13.949509 18.325885 14.048384 17.687715 14.496273 17.2837 C 14.944162 16.879684 15.566465 16.867576 15.892053 17.256311 L 17.977197 19.745565 L 21.114473 15.830042 C 21.260883 15.64733 21.477764 15.555523 21.716504 15.552539 z"/></g></svg>