<svg xmlns="http://www.w3.org/2000/svg" xmlns:svg="http://www.w3.org/2000/svg" id="svg699" width="100" height="100" version="1.1" viewBox="0 0 26.458 26.458" xml:space="preserve"><defs id="defs696"><linearGradient id="linearGradient11273"><stop style="stop-color:#ff00cf;stop-opacity:.61176473" id="stop11271" offset="0"/></linearGradient><linearGradient id="linearGradient1606"><stop style="stop-color:#000;stop-opacity:1" id="stop1604" offset="0"/></linearGradient></defs><g id="layer1"><path style="fill:#2b0000;stroke-width:.264583" id="path921" d="m 36.547914,10.117786 0.01617,9.128071"/><rect style="fill:#000;fill-opacity:1;stroke:#000;stroke-width:.265;stroke-dasharray:none;stroke-opacity:1" id="rect925" width="9.927" height="7.42" x="2.198" y="4.187"/><ellipse style="fill:none;stroke:none;stroke-width:.258" id="path10703" cx="-11.418" cy="19.841" rx="10.506" ry="10.583"/><ellipse style="fill:none;stroke:none;stroke-width:.258;stroke-opacity:1" id="path17819" cx="-11.418" cy="19.873" rx="9.26" ry="9.26"/><path style="fill:#880b0b;fill-opacity:1;stroke:none;stroke-width:.258;stroke-opacity:1" id="path24398" d="M -4.0271416,9.1123469 V 32.844838 Z"/><path style="fill:#880b0b;fill-opacity:1;stroke:none;stroke-width:0;stroke-dasharray:none;stroke-opacity:1" id="path27385" d="m 27.651609,12.698046 a 0.16062549,0.0728601 0 0 1 -0.05094,0.05323 0.16062549,0.0728601 0 0 1 -0.120512,0.01947"/><path style="fill:none;fill-opacity:1;stroke:#000;stroke-width:.79375;stroke-dasharray:none;stroke-opacity:1" id="path37578" d="M 8.3496831,12.332784 6.0193016,12.332106"/><path style="fill:none;fill-opacity:1;stroke:#000;stroke-width:.264999;stroke-dasharray:none;stroke-opacity:1" id="path37578-9-5-3" d="m 4.4758708,13.05758 5.4172431,3.4e-5"/><path id="path6593-5" style="fill:#000;fill-opacity:1;stroke:#040501;stroke-width:.132;stroke-opacity:1;stroke-dasharray:none" d="M 17.342611 2.0525879 L 13.364559 4.9909098 L 17.342611 8.0868449 L 16.773653 5.96191 C 19.184067 6.0944314 20.576546 8.4687878 20.93929 11.603943 L 23.119002 11.603943 C 22.586681 7.2878691 20.025486 4.0282413 16.905428 4.0204264 L 17.342611 2.0525879 z"/><path id="path6593-5-2" style="fill:#000;fill-opacity:1;stroke:#040501;stroke-width:.132;stroke-opacity:1;stroke-dasharray:none" d="m 7.3457166,14.047745 -2.183939,1.23e-4 c -2.97e-4,0.01343 -8.16e-4,0.02646 -0.0011,0.0399 0.0147,5.098626 2.8125329,9.204834 6.3149194,9.213606 l -0.437346,1.968175 3.978051,-2.938321 -3.97805,-3.095936 0.569185,2.124843 C 8.7841906,21.204917 7.3569025,17.974218 7.3457506,14.047738 Z m 4.0752334,9.329264 3.3e-5,-6e-6"/><path style="fill:none;fill-opacity:1;stroke:#050505;stroke-width:.264999;stroke-dasharray:none;stroke-opacity:1" id="path12067" d="M 12.448428,24.457422 Z"/><path style="fill:none;fill-opacity:1;stroke:#050505;stroke-width:.264999;stroke-dasharray:none;stroke-opacity:1" id="path12069" d="M 12.448428,24.457422 Z"/><path style="fill:none;fill-opacity:1;stroke:#050505;stroke-width:.264999;stroke-dasharray:none;stroke-opacity:1" id="path12075" d="M 13.229167,22.489583 Z"/><path style="fill:none;fill-opacity:1;stroke:#050505;stroke-width:.264999;stroke-dasharray:none;stroke-opacity:1" id="path12112" d="M 12.448428,18.42287 Z"/><circle id="path8947" style="fill:#000;stroke:#050505;stroke-width:.264583" cx="5.083" cy="13.282" r=".006"/><path style="fill:#000;fill-opacity:1;stroke:#000;stroke-width:.132" id="path2938-5-7" d="m 25.254351,20.107237 -5.51526,5.69564 -5.392202,-5.69564 h 2.456312 v -7.342481 h 6.05542 v 7.342481 z"/></g></svg>